<?xml version="1.0" ?><svg height="64" id="svg6754" version="1.1" width="64" xmlns="http://www.w3.org/2000/svg" xmlns:cc="http://creativecommons.org/ns#" xmlns:dc="http://purl.org/dc/elements/1.1/" xmlns:rdf="http://www.w3.org/1999/02/22-rdf-syntax-ns#" xmlns:svg="http://www.w3.org/2000/svg"><defs id="defs6756"/><g id="layer1"><g id="g6644" transform="matrix(0.66394316,0,0,0.66394316,13.831613,-969.81795)"><rect height="95.459412" id="rect3568-7-2-1-2-6-1-7-7-4" ry="9.1758575" style="fill:#549cff;fill-opacity:1;fill-rule:evenodd;stroke:none" width="95.459412" x="-20.300018" y="1461.1637"/><path d="m 25.625,1490.375 c -1.86975,0 -3.375,1.8398 -3.375,4.125 l 0,16.125 c 0,2.0378 1.196234,3.6907 2.78125,4.0312 0.01275,0.01 0.01838,0.021 0.03125,0.031 0.277628,0.1175 0.586598,0.1875 0.90625,0.1875 l 0.28125,0 0.0625,0 0.09375,0 14.6875,0 c 1.065375,-0.5289 2.18982,-0.8432 2.15625,-3.375 0,-1.662 -1.338,-3 -3,-3 l -11.25,0 0,-14 c -0.303649,-2.0872 -0.344476,-3.881 -3.375,-4.125 z m 22.4375,0.9688 c 3.784961,4.5862 6.0625,10.4647 6.0625,16.875 0,14.6518 -11.879374,26.5312 -26.53125,26.5312 -6.916249,0 -13.214649,-2.6639 -17.9375,-7 L 9.625,1528 l 28.65625,28.6562 27.6875,0 c 5.083425,0 9.1875,-4.1041 9.1875,-9.1874 l 0,-29.0626 -27.09375,-27.0624 z" id="rect3568-7-2-1-2-6-1-7-7-0" style="opacity:0.16000001;fill:#000000;fill-opacity:1;fill-rule:evenodd;stroke:none"/><path d="m 27.629981,1481.7205 c -14.651876,0 -26.5312505,11.8794 -26.5312505,26.5313 0,14.6519 11.8793745,26.5312 26.5312505,26.5312 14.651876,0 26.53125,-11.8793 26.53125,-26.5312 0,-14.6519 -11.879374,-26.5313 -26.53125,-26.5313 z m -1.96875,8.6875 c 3.030524,0.244 3.071351,2.0378 3.375,4.125 l 0,14 11.25,0 c 1.662,0 3,1.338 3,3 0.03357,2.5318 -1.090875,2.8461 -2.15625,3.375 l -14.6875,0 -0.09375,0 -0.0625,0 -0.28125,0 c -0.319652,0 -0.628622,-0.07 -0.90625,-0.1875 -0.01287,-0.01 -0.0185,-0.026 -0.03125,-0.031 -1.585016,-0.3406 -2.78125,-1.9934 -2.78125,-4.0312 l 0,-16.125 c 0,-2.2852 1.50525,-4.125 3.375,-4.125 z" id="path6434-5-9" style="fill:#ffffff;fill-opacity:1;fill-rule:evenodd;stroke:none"/></g></g></svg>